<svg width="61" height="81" viewBox="0 0 81 44" fill="none" xmlns="http://www.w3.org/2000/svg">
<path d="M73.7174 19.8051C76.591 15.4045 76.0983 9.43281 72.2376 5.57188C70.0932 3.42751 67.2421 2.24658 64.2096 2.24658C61.6043 2.24658 59.1341 3.12064 57.1298 4.72595C56.2257 3.93595 55.1707 3.17267 53.8765 2.74033C53.1442 2.49564 52.3143 2.37673 51.3393 2.37673C50.5279 2.37673 49.6978 2.45673 48.8948 2.53408C48.1184 2.60908 47.3154 2.68626 46.5599 2.68626C46.1053 2.68626 45.7034 2.65892 45.3315 2.60298C44.351 2.45501 43.3134 2.00845 42.2146 1.5358C40.6343 0.855955 39.0006 0.152832 37.1762 0.152832C35.3523 0.152832 33.7186 0.855799 32.1384 1.5358C31.0397 2.00845 30.002 2.45517 29.0214 2.60298C28.6495 2.65908 28.2476 2.68626 27.793 2.68626C27.0372 2.68626 26.2344 2.60892 25.458 2.53408C24.6551 2.45673 23.8248 2.37673 23.0136 2.37673C22.0387 2.37673 21.2086 2.49548 20.4763 2.74033C18.5706 3.37704 17.1384 4.76345 15.8745 5.98641C15.0995 6.73641 14.3678 7.44485 13.6186 7.90547C12.7344 8.44922 11.6958 8.86563 10.6916 9.26844C8.92596 9.97656 7.10034 10.7087 5.97925 12.1916C4.35675 14.3375 4.50003 16.9473 4.62644 19.2501C4.63675 19.4384 4.64659 19.6228 4.65566 19.805H0.0595703V20.9931C0.0595703 30.5145 7.80581 38.2609 17.3274 38.2609H27.5436V35.8848H17.3274C9.51596 35.8848 3.09019 29.839 2.48269 22.1812H77.6363C77.0288 29.839 70.603 35.8848 62.7918 35.8848H30.7122V38.2609H62.792C72.3133 38.2609 80.0596 30.5146 80.0596 20.9931V19.805H73.7174V19.8051ZM19.0288 19.8051C17.3198 19.8053 15.9297 18.4151 15.9297 16.7065C15.9297 14.9978 17.3198 13.6075 19.0288 13.6075C20.7375 13.6075 22.1277 14.9976 22.1277 16.7065C22.1277 18.4151 20.7375 19.8051 19.0288 19.8051ZM23.5394 19.8051C23.5569 19.78 23.5739 19.7548 23.5908 19.7292C23.6114 19.7544 23.6317 19.78 23.6523 19.8051H23.5394ZM28.7115 19.8053C26.3919 19.8053 24.5039 17.9176 24.5039 15.5975C24.5039 13.2773 26.3917 11.3897 28.7119 11.3897C30.4737 11.3897 32.0122 12.475 32.6303 14.062L28.3572 16.4559L28.357 16.4561L28.9378 17.4925C29.0265 17.6508 29.1198 17.8055 29.2155 17.9584C29.2419 18.0011 29.269 18.0428 29.2959 18.085C29.3805 18.2162 29.4672 18.3458 29.5567 18.4731C29.5717 18.4947 29.5862 18.5165 29.6014 18.5381C29.7078 18.6872 29.8183 18.8328 29.9315 18.9761C29.953 19.0031 29.9748 19.0298 29.9965 19.0567C30.1051 19.1917 30.2165 19.324 30.3311 19.4537C30.3367 19.4603 30.342 19.4672 30.3476 19.4736C29.8337 19.6908 29.2778 19.8053 28.7115 19.8053ZM43.0631 19.7276C43.0164 19.7537 42.969 19.7798 42.9214 19.8053H34.5483V19.8055C34.0012 19.5126 33.4915 19.1647 33.0231 18.7695L33.0161 18.7636C32.5098 18.3356 32.0564 17.8556 31.6608 17.3291L46.971 8.75188C48.5754 12.8075 46.9701 17.539 43.0631 19.7276ZM54.9885 6.97907C54.9195 7.07516 54.8518 7.17219 54.786 7.26985C54.752 7.32032 54.7182 7.37125 54.6849 7.42219C54.6184 7.52485 54.5543 7.62829 54.4912 7.73251C54.4645 7.77688 54.4365 7.82125 54.4104 7.86594C54.3235 8.01422 54.2398 8.16391 54.1602 8.31516C54.1546 8.32547 54.1499 8.33641 54.1445 8.34672C54.0709 8.48782 54.0009 8.63032 53.9337 8.7736C53.9104 8.8236 53.8884 8.87406 53.8657 8.92406C53.8179 9.03031 53.7713 9.13719 53.7268 9.24453C53.7035 9.30094 53.6807 9.35766 53.6582 9.41422C53.616 9.52063 53.576 9.62766 53.5373 9.73485C53.5181 9.7886 53.4982 9.84188 53.4798 9.89578C53.434 10.0289 53.391 10.1627 53.3507 10.2969C53.3424 10.3238 53.3332 10.3505 53.3254 10.3773C53.2782 10.5378 53.2352 10.6991 53.1953 10.8609C53.1831 10.9102 53.1726 10.9598 53.161 11.0092C53.1345 11.1241 53.109 11.2387 53.0857 11.3542C53.0737 11.4144 53.0624 11.4748 53.0513 11.5352C53.0315 11.643 53.0135 11.7512 52.9968 11.8595C52.9874 11.9195 52.9781 11.9794 52.9699 12.0397C52.9532 12.1602 52.9393 12.2808 52.9267 12.4017C52.9218 12.4475 52.9157 12.4931 52.9115 12.5391C52.8962 12.7033 52.8843 12.868 52.8762 13.0326C52.874 13.0756 52.8735 13.1184 52.8721 13.1616C52.8674 13.2856 52.8638 13.4097 52.8632 13.5339C52.8628 13.5947 52.8637 13.6555 52.8643 13.7159C52.8654 13.8247 52.8679 13.9333 52.8721 14.0419C52.8746 14.1042 52.8771 14.1666 52.8807 14.2287C52.887 14.3423 52.8954 14.4556 52.9049 14.5687C52.9095 14.6231 52.9132 14.6772 52.9185 14.7311C52.9348 14.8953 52.954 15.0595 52.9774 15.2231C52.9807 15.2461 52.9853 15.2692 52.9887 15.2925C53.0099 15.4345 53.0337 15.5764 53.0602 15.718C53.0709 15.7744 53.0832 15.8309 53.0946 15.8873C53.117 15.9964 53.1404 16.1056 53.166 16.2144C53.1802 16.2751 53.1952 16.3361 53.2104 16.3966C53.2377 16.5047 53.267 16.6123 53.2976 16.7198C53.3134 16.7756 53.3287 16.8315 53.3456 16.8873C53.3865 17.0234 53.4301 17.1589 53.4762 17.2934C53.4848 17.3181 53.4921 17.3431 53.5006 17.368C53.556 17.5262 53.6157 17.6833 53.6781 17.8395C53.6971 17.8867 53.7176 17.9336 53.7373 17.9806C53.7834 18.0912 53.8307 18.2012 53.8804 18.3106C53.9056 18.3659 53.9313 18.4208 53.9574 18.4756C54.0065 18.5789 54.0573 18.6815 54.1095 18.7836C54.1363 18.8362 54.1631 18.8886 54.1909 18.9408C54.2528 19.057 54.3173 19.1722 54.3835 19.2867C54.4035 19.3214 54.4223 19.3564 54.4427 19.3909C54.5256 19.5306 54.6112 19.669 54.7002 19.8058H46.8117V19.8053C50.1626 16.3326 51.0099 10.9372 48.5328 6.51516L47.9521 5.4786L34.7153 12.8942C33.6751 10.5756 31.3548 9.0136 28.7119 9.0136C26.1087 9.0136 23.8539 10.5322 22.7861 12.7298C21.8047 11.8022 20.4825 11.2314 19.0286 11.2314C16.0095 11.2314 13.5533 13.6875 13.5533 16.7067C13.5533 17.8562 13.9102 18.9236 14.518 19.8053H7.03518C7.0244 19.5755 7.01159 19.3464 6.99924 19.1201C6.88503 17.0408 6.77737 15.0767 7.87471 13.6251C8.59783 12.6689 10.0444 12.0886 11.5763 11.4742C12.6728 11.0345 13.8069 10.5795 14.8634 9.92984C15.8339 9.33313 16.6949 8.49985 17.5272 7.69391C18.6619 6.59547 19.8352 5.4597 21.2289 4.99407C21.7214 4.8297 22.2884 4.75313 23.0136 4.75313C23.7108 4.75313 24.4487 4.82407 25.23 4.89954C26.0623 4.97985 26.9231 5.06267 27.793 5.06267C28.3676 5.06267 28.8853 5.02657 29.3758 4.95267C30.6595 4.75892 31.8886 4.23017 33.0775 3.71845C34.499 3.10689 35.8417 2.52892 37.1761 2.52892C38.5106 2.52892 39.8536 3.10658 41.2753 3.71861C42.4642 4.23017 43.6934 4.75907 44.977 4.95267C45.4674 5.02657 45.9851 5.06267 46.5596 5.06267C47.4295 5.06267 48.2901 4.9797 49.1224 4.89954C49.9039 4.82407 50.642 4.75313 51.339 4.75313C52.0638 4.75313 52.6309 4.8297 53.1232 4.99407C53.9785 5.28001 54.7453 5.81641 55.4309 6.39954C55.4257 6.4061 55.4207 6.41266 55.4154 6.41923C55.3921 6.44766 55.3702 6.47704 55.3473 6.50579C55.2598 6.61485 55.1743 6.72469 55.0918 6.8361C55.0567 6.8836 55.0227 6.93157 54.9885 6.97907ZM71.3408 19.0517L67.3904 15.1011L65.7101 16.7811L68.7346 19.8058H59.6846V19.8055L62.7091 16.7808L61.0288 15.1008L57.079 19.0509C57.0699 19.039 57.0606 19.0275 57.0517 19.0155C57.0068 18.9561 56.9621 18.8965 56.9188 18.8364C56.8752 18.7759 56.8334 18.7148 56.7916 18.6537C56.7495 18.5922 56.7081 18.5306 56.6676 18.4683C56.6281 18.4067 56.5896 18.3444 56.5515 18.282C56.5129 18.2186 56.4743 18.1551 56.4371 18.0909C56.401 18.0283 56.3663 17.965 56.3316 17.9017C56.296 17.8362 56.2606 17.7709 56.2267 17.7047C56.1942 17.6417 56.1632 17.5776 56.1324 17.5137C56.0998 17.4462 56.0671 17.3787 56.0367 17.3108C56.0074 17.2469 55.9804 17.1825 55.9532 17.1181C55.9238 17.0487 55.8945 16.9797 55.8668 16.9098C55.8415 16.8458 55.8176 16.7811 55.7938 16.7162C55.7677 16.6453 55.7415 16.5745 55.7171 16.5028C55.6952 16.4381 55.6749 16.3733 55.6546 16.3081C55.6316 16.2358 55.6088 16.1631 55.5879 16.0903C55.5693 16.0256 55.5524 15.9606 55.5354 15.8955C55.5159 15.8216 55.4965 15.7475 55.4788 15.6733C55.4637 15.6087 55.4504 15.5442 55.4365 15.4792C55.4204 15.4036 55.4042 15.3283 55.3901 15.2522C55.3782 15.188 55.3679 15.1234 55.3574 15.0591C55.3449 14.9822 55.3323 14.9053 55.3215 14.8283C55.3127 14.7644 55.306 14.7003 55.2985 14.6362C55.2895 14.5583 55.2802 14.4803 55.2734 14.4022C55.2677 14.3387 55.264 14.2753 55.2598 14.212C55.2545 14.1328 55.2488 14.0537 55.2454 13.9745C55.2429 13.9119 55.2423 13.8492 55.2412 13.7866C55.2395 13.7064 55.2376 13.6264 55.2379 13.5462C55.2384 13.4844 55.2406 13.4226 55.2423 13.3609C55.2443 13.2798 55.246 13.1992 55.2504 13.1183C55.2537 13.0575 55.2592 12.9967 55.2635 12.9361C55.2696 12.8544 55.2751 12.7727 55.2834 12.6912C55.2895 12.6316 55.2974 12.572 55.3048 12.5123C55.3148 12.43 55.3243 12.3478 55.3365 12.2656C55.3452 12.2072 55.356 12.1489 55.366 12.0906C55.3801 12.0081 55.3935 11.9253 55.4098 11.843C55.4212 11.7856 55.4346 11.7286 55.4471 11.6714C55.4652 11.5887 55.4829 11.5058 55.5032 11.4234C55.5171 11.3677 55.5332 11.312 55.5481 11.2562C55.5704 11.1734 55.5921 11.0903 55.6168 11.0078C55.6331 10.9533 55.6517 10.8995 55.6692 10.8453C55.6956 10.7627 55.7217 10.6797 55.7507 10.5975C55.7695 10.5442 55.7906 10.4917 55.8104 10.4387C55.8412 10.3564 55.8713 10.2742 55.9048 10.1925C55.9259 10.1408 55.9493 10.0898 55.9715 10.0386C56.0068 9.95687 56.0412 9.87516 56.079 9.79438C56.1023 9.74406 56.1282 9.69469 56.1527 9.64485C56.1921 9.56391 56.2312 9.48297 56.2732 9.40313C56.299 9.35422 56.3274 9.30657 56.3542 9.25797C56.3981 9.17844 56.4413 9.0986 56.4877 9.02016C56.5166 8.97157 56.5479 8.92422 56.5777 8.87594C56.6254 8.79906 56.6721 8.72172 56.7223 8.64594C56.7545 8.59735 56.7895 8.55016 56.8227 8.50172C56.8735 8.42813 56.9237 8.35375 56.977 8.2811C57.0098 8.23672 57.0452 8.19344 57.0788 8.14969L61.029 12.0998L62.7093 10.4195L58.7584 6.4686C60.3163 5.27251 62.2127 4.62282 64.2098 4.62282C66.2068 4.62282 68.1029 5.27267 69.661 6.4686L65.7102 10.4194L67.3905 12.0997L71.3405 8.14953C73.7938 11.3555 73.7943 15.8472 71.3408 19.0517Z" fill="#d2ae6d"/>
<path d="M80.0594 40.6384H0.0595703V43.0145H80.0594V40.6384Z" fill="#d2ae6d"/>
</svg>
