<svg width="61" height="81" viewBox="0 0 40 81" fill="none" xmlns="http://www.w3.org/2000/svg">
<path d="M7.20594 41.382C7.28832 41.3981 7.37053 41.4058 7.45155 41.4058C8.05019 41.4058 8.58432 40.9828 8.70313 40.3733C9.04628 38.6123 9.77292 36.9849 10.8628 35.5358L12.1962 33.7629C12.4088 33.4802 12.4946 33.1219 12.4332 32.7735L11.2053 25.8218C11.0825 25.1275 10.4207 24.6635 9.72611 24.7867C9.03181 24.9095 8.56849 25.5716 8.69105 26.2659L9.82245 32.6713L8.82245 34.0012C7.49819 35.7617 6.61496 37.7413 6.19743 39.8848C6.06228 40.5769 6.51402 41.2472 7.20594 41.382Z" fill="#d2ae6d"/>
<path d="M20.391 57.1443C21.096 57.1443 21.6676 56.5729 21.6676 55.8678C21.6676 55.1626 21.096 54.5912 20.391 54.5912C14.7615 54.5912 9.85513 50.591 8.72441 45.0798C8.58262 44.3891 7.90773 43.9443 7.21734 44.0858C6.52662 44.2274 6.08169 44.9021 6.2233 45.5929C7.59658 52.2863 13.5549 57.1443 20.391 57.1443Z" fill="#d2ae6d"/>
<path d="M36.9205 77.4615H34.6167C31.1762 74.0875 26.5401 72.0473 21.6674 71.7421V62.208C31.8647 61.5481 39.9593 53.0434 39.9593 42.6822C39.9593 38.5934 38.7205 34.6999 36.3709 31.3859L39.9399 11.1862C40.0056 10.8145 39.9035 10.4329 39.6607 10.1437C39.4182 9.85465 39.0601 9.6875 38.6827 9.6875H21.6674V5.54656C21.6674 3.90418 23.0037 2.56784 24.6461 2.56784H37.4323C38.1373 2.56784 38.7089 1.99644 38.7089 1.29124C38.7089 0.586053 38.1373 0.0146484 37.4323 0.0146484H24.6461C21.5959 0.0146484 19.1142 2.49618 19.1142 5.54656V9.6875H2.09888C1.72151 9.6875 1.36339 9.85448 1.12083 10.1437C0.87828 10.4329 0.776153 10.8145 0.841684 11.1862L4.41071 31.3859C2.06109 34.7003 0.82228 38.5937 0.82228 42.6822C0.82228 53.0432 8.91692 61.5479 19.1144 62.208V71.7421C14.2417 72.0473 9.6056 74.0875 6.16509 77.4615H3.86126C3.15624 77.4615 2.58466 78.0329 2.58466 78.7381C2.58466 79.4432 3.15624 80.0146 3.86126 80.0146H36.9207C37.6257 80.0146 38.1973 79.4432 38.1973 78.7381C38.1973 78.0329 37.6255 77.4615 36.9205 77.4615ZM20.3908 74.2536C24.0832 74.2536 27.673 75.3983 30.6286 77.4615H10.153C13.1086 75.3983 16.6985 74.2536 20.3908 74.2536ZM6.78262 32.4664C6.99522 32.1837 7.081 31.8252 7.01956 31.4769L3.62092 12.2405H19.1142V19.6611H8.96747C8.26262 19.6611 7.69105 20.2323 7.69088 20.9374C7.69088 21.6429 8.26245 22.2143 8.96747 22.2143H35.3986L33.762 31.4769C33.7006 31.8254 33.7864 32.1835 33.999 32.4664C36.2281 35.4305 37.4063 38.9631 37.4063 42.6822C37.4063 52.0645 29.7733 59.6975 20.391 59.6975C11.0087 59.6975 3.37547 52.0645 3.37547 42.6822C3.3753 38.9632 4.55351 35.4308 6.78262 32.4664ZM35.8497 19.6613H21.6674V12.2407H37.1608L35.8497 19.6613Z" fill="#d2ae6d"/>
</svg>
