<svg width="61" height="81" viewBox="0 0 59 81" fill="none" xmlns="http://www.w3.org/2000/svg">
<path d="M24.0258 53.4121L24.7622 53.8316L24.8132 53.7423L24.0258 53.4121Z" fill="#d2ae6d"/>
<path d="M58.2023 9.22169L46.7467 1.68758C46.1322 1.28353 45.306 1.45387 44.9016 2.06861C44.4973 2.68335 44.668 3.50935 45.2826 3.91379L56.7381 11.4479C56.9636 11.5962 57.2179 11.6671 57.4689 11.6671C57.9023 11.6671 58.3275 11.4561 58.5833 11.0669C58.9875 10.4521 58.817 9.62613 58.2023 9.22169Z" fill="#d2ae6d"/>
<path d="M39.5817 18.8305H35.7933L39.8114 3.13099C39.9939 2.41823 39.5638 1.69234 38.851 1.51001C38.1377 1.32711 37.4126 1.75762 37.23 2.47019L33.0429 18.8305H1.79387C1.6557 18.8305 1.51676 18.8474 1.38658 18.8937C0.735108 19.1247 0.396524 19.7521 0.489211 20.3628L9.37423 78.8824C9.4732 79.5335 10.0329 80.0146 10.6915 80.0146H30.6824C31.3409 80.0146 31.9006 79.5335 31.9996 78.8824L40.8846 20.3628C40.9771 19.7526 40.6397 19.127 39.9901 18.8945C39.8597 18.8478 39.7202 18.8305 39.5817 18.8305ZM3.35604 21.495H32.361L30.1194 30.2539H25.7475L23.5466 23.7334C23.519 23.6514 23.4867 23.5703 23.4408 23.4968C23.0854 22.9268 22.4302 22.7247 21.8642 22.9158L9.69987 27.022C9.07904 27.2315 8.7456 27.9047 8.95514 28.5255L9.53867 30.254H4.68601L3.35604 21.495ZM20.3222 54.9526L26.953 62.4759L19.4295 69.1065L12.7987 61.5832L20.3222 54.9526ZM24.0258 53.4121L16.0483 48.8684L21.0115 40.1544L29.7256 45.1179L24.7622 53.8316L24.0258 53.4121ZM23.8347 32.9186L24.6615 35.368L15.1598 38.5755L13.2505 32.9186H23.8347ZM12.3509 30.254L11.9525 29.0739L21.4542 25.8664L22.9351 30.254H12.3509ZM29.5372 77.3501H11.8368L5.09064 32.9186H10.4383L13.0676 40.7087C13.0914 40.7791 13.1188 40.8489 13.1563 40.9131C13.4205 41.3651 13.8706 41.5961 14.3238 41.5961C14.4675 41.5961 14.6113 41.5729 14.7499 41.5261L17.7383 40.5174L13.0735 48.7072C12.7094 49.3465 12.9325 50.1601 13.5718 50.5242L18.2766 53.2039L10.0375 60.4653C9.77219 60.699 9.61099 61.0283 9.58872 61.3809C9.56665 61.7336 9.68522 62.0807 9.91893 62.3457L18.3116 71.8679C18.5748 72.1665 18.9421 72.3191 19.3115 72.3191C19.6244 72.3191 19.9387 72.2095 20.1918 71.9865L29.7142 63.594C30.1607 63.2006 30.3128 62.5358 30.0023 61.9449C29.9616 61.8674 29.907 61.7981 29.8493 61.7325L25.6175 56.9308C25.9445 56.8398 26.2372 56.6257 26.4182 56.3079L32.7004 45.2787C33.0001 44.7528 32.9209 44.0587 32.4105 43.6027C32.3553 43.5534 32.2923 43.5131 32.228 43.4765L23.574 38.5475L26.9142 37.4201C27.535 37.2105 27.8684 36.5372 27.6589 35.9163L26.6471 32.9188H36.2836L29.5372 77.3501ZM36.6878 30.254H32.8696L35.1112 21.4952H38.0176L36.6878 30.254Z" fill="#d2ae6d"/>
<path d="M42.3425 0.0146484C41.6067 0.0146484 41.0102 0.611119 41.0102 1.34691V3.2566C41.0102 3.99239 41.6067 4.58886 42.3425 4.58886C43.0783 4.58886 43.6747 3.99239 43.6747 3.2566V1.34691C43.6747 0.611119 43.0783 0.0146484 42.3425 0.0146484Z" fill="#d2ae6d"/>
<path d="M25.7618 49.5733L27.473 46.6646C27.8462 46.0305 27.6345 45.214 27.0004 44.8409C26.366 44.4673 25.5497 44.6794 25.1765 45.3135L23.4653 48.2222C23.0921 48.8564 23.3037 49.673 23.9379 50.0461C24.1501 50.1709 24.3827 50.2303 24.6122 50.2303C25.0688 50.2303 25.5134 49.9953 25.7618 49.5733Z" fill="#d2ae6d"/>
<path d="M20.1031 63.6104L17.891 61.0616C17.4089 60.506 16.5671 60.4464 16.0117 60.9287C15.456 61.411 15.3966 62.2524 15.8789 62.8082L18.091 65.357C18.3544 65.6605 18.725 65.816 19.0976 65.816C19.4073 65.816 19.7183 65.7089 19.9702 65.4898C20.526 65.0073 20.5856 64.1659 20.1031 63.6104Z" fill="#d2ae6d"/>
</svg>
