<svg width="61" height="81" viewBox="0 0 68 81" fill="none" xmlns="http://www.w3.org/2000/svg">
<path d="M67.5999 40.4211C67.5999 37.9884 66.6335 35.6555 64.9134 33.9353C63.1933 32.2152 60.8603 31.2489 58.4277 31.2489H57.4283C58.6721 29.9517 59.5073 28.3176 59.83 26.5498C60.1528 24.7819 59.9489 22.9581 59.2437 21.3052C58.5385 19.6522 57.3631 18.2429 55.8636 17.2525C54.364 16.262 52.6065 15.7341 50.8094 15.7342H50.0033C49.6419 13.569 48.4127 12.0084 46.3391 11.059C44.0739 10.023 41.0259 9.89311 38.6225 9.89311C37.3527 9.92422 36.1152 9.49002 35.1432 8.67225C34.3954 8.00603 33.9507 7.14994 33.9507 6.36379C33.9507 4.48838 34.7551 3.09098 35.1166 2.87945C35.492 2.88387 35.8539 2.73895 36.1225 2.47658C36.3911 2.2142 36.5445 1.85586 36.5489 1.48039C36.5533 1.10491 36.4084 0.743065 36.146 0.474443C35.8837 0.20582 35.5253 0.0524272 35.1499 0.0480099C34.7401 0.0180299 25.0516 -0.598226 20.4047 5.08631C18.2012 7.77619 17.525 11.3538 18.3944 15.7342H17.3268C15.5297 15.7341 13.7721 16.2617 12.2723 17.2517C10.7725 18.2417 9.59647 19.6504 8.89024 21.3028C8.18401 22.9553 7.97867 24.7789 8.29973 26.547C8.62078 28.3152 9.45408 29.9501 10.6962 31.2489H9.69685C7.3759 31.2473 5.14067 32.1257 3.44173 33.707C1.7428 35.2883 0.706489 37.4548 0.541714 39.7699C0.376939 42.085 1.09595 44.3765 2.5538 46.1824C4.01166 47.9884 6.09995 49.1745 8.39772 49.5017L14.8301 78.9021C14.8995 79.2174 15.0746 79.4996 15.3263 79.702C15.578 79.9043 15.8912 80.0146 16.2142 80.0146H51.922C52.2449 80.0146 52.5582 79.9043 52.8099 79.702C53.0616 79.4996 53.2366 79.2174 53.3061 78.9021L59.7268 49.5C61.9108 49.1847 63.9083 48.0938 65.354 46.4266C66.7997 44.7595 67.5969 42.6277 67.5999 40.4211ZM40.9377 77.1832L42.6632 49.5933H49.5036L46.0526 77.1832H40.9377ZM22.0836 77.1832L18.6326 49.5933H25.473L27.1985 77.1832H22.0836ZM26.6405 49.5933H33.486V77.1832H28.3661L26.6405 49.5933ZM34.6519 49.5933H41.4956L39.7701 77.1832H34.6519V49.5933ZM11.3341 49.5933H17.4583L20.9094 77.1832H17.3584L11.3341 49.5933ZM50.7828 77.1832H47.2268L50.6778 49.5933H56.8087L50.7828 77.1832ZM58.4593 46.7618H9.6752C7.99352 46.7574 6.38248 46.0851 5.19647 44.8929C4.01047 43.7006 3.34667 42.0861 3.35108 40.4044C3.3555 38.7227 4.02778 37.1117 5.22003 35.9257C6.41228 34.7397 8.02683 34.0759 9.70851 34.0803H31.3357C31.7112 34.0803 32.0713 33.9311 32.3368 33.6656C32.6023 33.4001 32.7515 33.0401 32.7515 32.6646C32.7515 32.2891 32.6023 31.929 32.3368 31.6635C32.0713 31.398 31.7112 31.2489 31.3357 31.2489H17.3268C15.6627 31.2219 14.0758 30.5419 12.9086 29.3555C11.7413 28.1692 11.0871 26.5716 11.0871 24.9073C11.0871 23.2429 11.7413 21.6453 12.9086 20.459C14.0758 19.2726 15.6627 18.5926 17.3268 18.5657H19.8567C19.9709 18.5958 20.0885 18.6109 20.2065 18.6106C20.3238 18.6101 20.4407 18.5955 20.5546 18.5673C20.7348 18.5216 20.9043 18.4409 21.0533 18.3297C21.2024 18.2185 21.328 18.079 21.4231 17.9192C21.5183 17.7595 21.581 17.5825 21.6077 17.3985C21.6344 17.2145 21.6247 17.027 21.5789 16.8468L21.5706 16.8135C21.5706 16.8135 21.5706 16.7985 21.5706 16.7902C21.5706 16.7818 21.5706 16.7785 21.5706 16.7718C20.3847 12.5064 20.7378 9.17858 22.6082 6.88178C24.8701 4.10863 28.9373 3.21756 31.7804 2.95607C31.3587 4.03997 31.1408 5.19242 31.1375 6.35547C31.1375 7.96439 31.9204 9.57998 33.2861 10.7858C34.7672 12.056 36.6599 12.7439 38.6109 12.7212C44.482 12.7212 46.5339 13.8438 47.1052 15.7342H38.4543C38.0789 15.7342 37.7188 15.8834 37.4533 16.1489C37.1878 16.4144 37.0386 16.7745 37.0386 17.1499C37.0386 17.5254 37.1878 17.8855 37.4533 18.151C37.7188 18.4165 38.0789 18.5657 38.4543 18.5657H50.8094C52.4735 18.5926 54.0603 19.2726 55.2276 20.459C56.3949 21.6453 57.0491 23.2429 57.0491 24.9073C57.0491 26.5716 56.3949 28.1692 55.2276 29.3555C54.0603 30.5419 52.4735 31.2219 50.8094 31.2489C50.4339 31.2489 50.0738 31.398 49.8083 31.6635C49.5428 31.929 49.3937 32.2891 49.3937 32.6646C49.3937 33.0401 49.5428 33.4001 49.8083 33.6656C50.0738 33.9311 50.4339 34.0803 50.8094 34.0803H58.4277C60.1093 34.0761 61.7238 34.7401 62.9159 35.9263C64.108 37.1124 64.7801 38.7236 64.7843 40.4052C64.7885 42.0869 64.1244 43.7014 62.9383 44.8935C61.7521 46.0856 60.141 46.7576 58.4593 46.7618Z" fill="#d2ae6d"/>
<path d="M40.5296 38.3191C40.0117 38.3188 39.5053 38.4721 39.0745 38.7596C38.6437 39.0471 38.3079 39.4559 38.1095 39.9343C37.911 40.4127 37.859 40.9392 37.9598 41.4472C38.0606 41.9552 38.3099 42.4219 38.676 42.7882C39.0421 43.1545 39.5086 43.4041 40.0165 43.5052C40.5245 43.6064 41.051 43.5546 41.5295 43.3565C42.008 43.1584 42.4171 42.8228 42.7048 42.3922C42.9926 41.9616 43.1462 41.4553 43.1462 40.9374C43.1453 40.2435 42.8694 39.5783 42.3789 39.0876C41.8885 38.5968 41.2234 38.3205 40.5296 38.3191ZM40.5296 42.3898C40.2423 42.3901 39.9613 42.3052 39.7223 42.1458C39.4832 41.9864 39.2968 41.7597 39.1866 41.4943C39.0764 41.229 39.0474 40.9369 39.1033 40.6551C39.1591 40.3732 39.2973 40.1143 39.5004 39.911C39.7034 39.7077 39.9622 39.5692 40.244 39.5131C40.5258 39.4569 40.8179 39.4855 41.0834 39.5954C41.3488 39.7053 41.5758 39.8915 41.7354 40.1303C41.8951 40.3692 41.9803 40.6501 41.9803 40.9374C41.981 41.1285 41.9439 41.3178 41.8714 41.4946C41.7988 41.6714 41.6921 41.8321 41.5574 41.9676C41.4226 42.1031 41.2625 42.2107 41.0862 42.2843C40.9098 42.3579 40.7207 42.396 40.5296 42.3964V42.3898Z" fill="#d2ae6d"/>
<path d="M12.7431 38.1692C12.7431 37.8346 12.6439 37.5074 12.458 37.2291C12.272 36.9508 12.0077 36.7339 11.6985 36.6058C11.3893 36.4778 11.0491 36.4443 10.7208 36.5095C10.3926 36.5748 10.091 36.736 9.85438 36.9727C9.61772 37.2093 9.45655 37.5109 9.39126 37.8391C9.32596 38.1674 9.35947 38.5076 9.48755 38.8168C9.61563 39.126 9.83252 39.3903 10.1108 39.5763C10.3891 39.7622 10.7163 39.8614 11.0509 39.8614C11.4996 39.861 11.9298 39.6826 12.247 39.3653C12.5643 39.0481 12.7427 38.6179 12.7431 38.1692ZM11.0509 38.6956C10.9468 38.6956 10.8451 38.6647 10.7585 38.6069C10.672 38.549 10.6045 38.4668 10.5647 38.3707C10.5249 38.2745 10.5144 38.1687 10.5347 38.0666C10.5551 37.9645 10.6052 37.8707 10.6788 37.7971C10.7524 37.7235 10.8462 37.6733 10.9483 37.653C11.0504 37.6327 11.1562 37.6432 11.2524 37.683C11.3485 37.7228 11.4307 37.7903 11.4886 37.8768C11.5464 37.9634 11.5773 38.0651 11.5773 38.1692C11.5775 38.2384 11.564 38.307 11.5376 38.3709C11.5113 38.4349 11.4725 38.493 11.4236 38.5419C11.3747 38.5908 11.3166 38.6296 11.2526 38.6559C11.1887 38.6823 11.1201 38.6958 11.0509 38.6956Z" fill="#d2ae6d"/>
<path d="M58.8441 36.477C58.5094 36.4774 58.1824 36.5769 57.9044 36.763C57.6263 36.9492 57.4097 37.2136 57.2818 37.5228C57.154 37.8321 57.1207 38.1722 57.1862 38.5004C57.2517 38.8285 57.413 39.1299 57.6497 39.3664C57.8865 39.6029 58.188 39.7639 58.5162 39.829C58.8444 39.8942 59.1846 39.8606 59.4937 39.7325C59.8028 39.6043 60.067 39.3874 60.2528 39.1092C60.4387 38.831 60.5379 38.5039 60.5379 38.1692C60.5375 37.7203 60.3588 37.2899 60.0412 36.9726C59.7236 36.6553 59.293 36.477 58.8441 36.477ZM58.8441 38.6956C58.74 38.6952 58.6384 38.6641 58.5521 38.606C58.4658 38.548 58.3986 38.4657 58.359 38.3695C58.3194 38.2733 58.3092 38.1675 58.3297 38.0655C58.3502 37.9636 58.4005 37.8699 58.4741 37.7965C58.5478 37.7231 58.6416 37.6731 58.7436 37.6529C58.8457 37.6327 58.9514 37.6433 59.0475 37.6831C59.1436 37.723 59.2257 37.7905 59.2834 37.877C59.3412 37.9635 59.372 38.0652 59.372 38.1692C59.372 38.2385 59.3584 38.3071 59.3318 38.371C59.3053 38.435 59.2663 38.4931 59.2173 38.542C59.1682 38.5909 59.11 38.6296 59.046 38.656C58.9819 38.6823 58.9133 38.6958 58.8441 38.6956Z" fill="#d2ae6d"/>
<path d="M25.0499 21.497C24.6784 21.497 24.3151 21.6072 24.0062 21.8137C23.6972 22.0201 23.4564 22.3135 23.3142 22.6568C23.172 23.0001 23.1348 23.3779 23.2073 23.7423C23.2798 24.1067 23.4587 24.4415 23.7215 24.7043C23.9842 24.967 24.319 25.1459 24.6834 25.2184C25.0479 25.2909 25.4256 25.2537 25.7689 25.1115C26.1122 24.9693 26.4056 24.7285 26.6121 24.4196C26.8185 24.1106 26.9287 23.7474 26.9287 23.3758C26.9282 22.8776 26.7302 22.4 26.3779 22.0478C26.0257 21.6956 25.5481 21.4975 25.0499 21.497ZM25.0499 24.087C24.9089 24.087 24.771 24.0451 24.6537 23.9667C24.5365 23.8883 24.4451 23.7769 24.3912 23.6465C24.3373 23.5162 24.3233 23.3728 24.3509 23.2344C24.3785 23.0961 24.4466 22.9691 24.5465 22.8695C24.6463 22.7698 24.7735 22.7021 24.9119 22.6747C25.0503 22.6474 25.1937 22.6618 25.3239 22.716C25.4541 22.7702 25.5653 22.8618 25.6435 22.9793C25.7216 23.0967 25.7631 23.2347 25.7628 23.3758C25.7606 23.5634 25.6845 23.7426 25.5511 23.8745C25.4176 24.0064 25.2376 24.0803 25.0499 24.0803V24.087Z" fill="#d2ae6d"/>
<path d="M27.8864 9.52668C27.5148 9.52668 27.1516 9.63687 26.8426 9.84331C26.5336 10.0497 26.2928 10.3432 26.1506 10.6865C26.0084 11.0298 25.9712 11.4075 26.0437 11.772C26.1162 12.1364 26.2952 12.4712 26.5579 12.7339C26.8207 12.9967 27.1554 13.1756 27.5199 13.2481C27.8843 13.3206 28.262 13.2834 28.6053 13.1412C28.9486 12.999 29.2421 12.7582 29.4485 12.4492C29.6549 12.1402 29.7651 11.777 29.7651 11.4054C29.7651 10.9072 29.5672 10.4293 29.2148 10.077C28.8625 9.72462 28.3847 9.52668 27.8864 9.52668ZM27.8864 12.1166C27.7453 12.1166 27.6074 12.0748 27.4902 11.9964C27.3729 11.918 27.2815 11.8065 27.2276 11.6762C27.1737 11.5458 27.1597 11.4024 27.1873 11.2641C27.215 11.1258 27.283 10.9987 27.3829 10.8991C27.4828 10.7995 27.6099 10.7317 27.7483 10.7044C27.8867 10.6771 28.0301 10.6914 28.1603 10.7456C28.2906 10.7999 28.4018 10.8915 28.4799 11.0089C28.558 11.1264 28.5996 11.2644 28.5992 11.4054C28.5992 11.499 28.5808 11.5916 28.5449 11.678C28.5091 11.7644 28.4566 11.8428 28.3903 11.9089C28.3241 11.975 28.2455 12.0273 28.159 12.063C28.0726 12.0986 27.9799 12.1168 27.8864 12.1166Z" fill="#d2ae6d"/>
<path d="M44.1738 23.7722C43.7657 23.7722 43.3667 23.8932 43.0274 24.12C42.688 24.3467 42.4235 24.669 42.2673 25.0461C42.1111 25.4232 42.0702 25.8381 42.1499 26.2384C42.2295 26.6387 42.426 27.0064 42.7146 27.295C43.0032 27.5836 43.3709 27.7801 43.7712 27.8598C44.1716 27.9394 44.5865 27.8985 44.9636 27.7423C45.3406 27.5862 45.6629 27.3216 45.8897 26.9823C46.1164 26.6429 46.2375 26.2439 46.2375 25.8358C46.2366 25.2888 46.0189 24.7644 45.6321 24.3776C45.2453 23.9908 44.7209 23.7731 44.1738 23.7722ZM44.1738 26.7319C43.9962 26.7319 43.8226 26.6792 43.6749 26.5805C43.5272 26.4817 43.4122 26.3414 43.3443 26.1773C43.2764 26.0132 43.2587 25.8326 43.2935 25.6584C43.3283 25.4842 43.4139 25.3242 43.5396 25.1988C43.6654 25.0733 43.8255 24.9879 43.9997 24.9534C44.174 24.919 44.3545 24.937 44.5185 25.0052C44.6826 25.0734 44.8226 25.1887 44.9211 25.3366C45.0195 25.4844 45.0719 25.6582 45.0716 25.8358C45.0711 26.0736 44.9764 26.3015 44.808 26.4695C44.6397 26.6375 44.4116 26.7319 44.1738 26.7319Z" fill="#d2ae6d"/>
<path d="M22.883 42.1349C22.5113 42.1346 22.1479 42.2445 21.8386 42.4509C21.5294 42.6572 21.2884 42.9506 21.146 43.2939C21.0036 43.6373 20.9662 44.0152 21.0387 44.3798C21.1111 44.7444 21.2901 45.0793 21.5529 45.3421C21.8158 45.605 22.1507 45.784 22.5153 45.8564C22.8799 45.9288 23.2578 45.8915 23.6011 45.7491C23.9445 45.6067 24.2379 45.3656 24.4442 45.0564C24.6505 44.7472 24.7605 44.3837 24.7601 44.012C24.7597 43.5143 24.5618 43.0371 24.2099 42.6852C23.8579 42.3333 23.3807 42.1354 22.883 42.1349ZM22.883 44.7249C22.742 44.7252 22.604 44.6837 22.4866 44.6055C22.3691 44.5274 22.2775 44.4162 22.2233 44.286C22.1691 44.1557 22.1547 44.0124 22.182 43.874C22.2093 43.7356 22.2771 43.6084 22.3767 43.5085C22.4764 43.4087 22.6034 43.3406 22.7417 43.313C22.88 43.2853 23.0234 43.2994 23.1538 43.3533C23.2841 43.4072 23.3956 43.4985 23.474 43.6158C23.5524 43.7331 23.5942 43.8709 23.5942 44.012C23.5942 44.2008 23.5194 44.3818 23.386 44.5155C23.2527 44.6491 23.0718 44.7244 22.883 44.7249Z" fill="#d2ae6d"/>
<path d="M28.4293 36.7918C28.3034 36.7022 28.1471 36.6662 27.9947 36.6918C27.8423 36.7175 27.7063 36.8025 27.6166 36.9284C27.4959 37.0982 27.3429 37.2425 27.1664 37.3532C26.9899 37.4638 26.7933 37.5386 26.5879 37.5732C26.3825 37.6079 26.1723 37.6017 25.9693 37.5551C25.7663 37.5085 25.5744 37.4223 25.4047 37.3015C25.3425 37.255 25.2716 37.2213 25.1962 37.2026C25.1208 37.1838 25.0424 37.1804 24.9657 37.1923C24.8889 37.2043 24.8153 37.2315 24.7492 37.2724C24.6831 37.3132 24.6258 37.3668 24.5808 37.4301C24.5357 37.4934 24.5037 37.5651 24.4867 37.6409C24.4697 37.7167 24.4681 37.7951 24.4818 37.8716C24.4956 37.948 24.5245 38.021 24.5669 38.0861C24.6092 38.1512 24.6642 38.2073 24.7285 38.2509C25.3235 38.6737 26.0619 38.8432 26.7817 38.722C27.5016 38.6009 28.1439 38.199 28.5676 37.6046C28.6119 37.5422 28.6434 37.4716 28.6605 37.397C28.6775 37.3223 28.6797 37.2451 28.6668 37.1696C28.654 37.0941 28.6264 37.0219 28.5857 36.9571C28.5449 36.8923 28.4918 36.8361 28.4293 36.7918Z" fill="#d2ae6d"/>
<path d="M52.4217 41.7518C52.2967 41.6609 52.1406 41.6232 51.9879 41.6473C51.8351 41.6713 51.6982 41.7551 51.6072 41.8801C51.5162 42.0051 51.4786 42.1611 51.5027 42.3139C51.5267 42.4666 51.6105 42.6036 51.7355 42.6946C52.075 42.9424 52.3023 43.3149 52.3676 43.7302C52.4329 44.1455 52.3307 44.5697 52.0836 44.9097C51.9926 45.0348 51.955 45.1908 51.979 45.3435C52.0031 45.4963 52.0868 45.6332 52.2118 45.7242C52.3368 45.8152 52.4929 45.8528 52.6456 45.8288C52.7983 45.8047 52.9353 45.721 53.0263 45.596C53.4546 45.0056 53.6314 44.2695 53.5181 43.549C53.4048 42.8285 53.0105 42.1822 52.4217 41.7518Z" fill="#d2ae6d"/>
<path d="M39.6452 32.07C39.7998 32.0775 39.9511 32.0233 40.0657 31.9193C40.1803 31.8152 40.2489 31.67 40.2565 31.5153C40.264 31.3607 40.2098 31.2095 40.1057 31.0948C40.0017 30.9802 39.8564 30.9116 39.7018 30.9041C39.2834 30.8616 38.899 30.6548 38.6329 30.3291C38.3668 30.0034 38.2409 29.5854 38.2828 29.1669C38.2982 29.0123 38.2516 28.8579 38.1533 28.7376C38.0549 28.6174 37.9127 28.5411 37.7581 28.5257C37.6035 28.5102 37.4491 28.5568 37.3288 28.6552C37.2086 28.7536 37.1323 28.8957 37.1169 29.0503C37.0448 29.7764 37.2637 30.5014 37.7255 31.0662C38.1873 31.6311 38.8543 31.9897 39.5802 32.0633C39.6016 32.0675 39.6234 32.0697 39.6452 32.07Z" fill="#d2ae6d"/>
<path d="M18.6908 24.5883C18.3722 24.4178 18.0231 24.3117 17.6635 24.2763C17.3039 24.2408 16.9408 24.2766 16.595 24.3817C16.2493 24.4867 15.9276 24.6589 15.6485 24.8884C15.3693 25.118 15.1382 25.4003 14.9683 25.7192C14.8958 25.8558 14.8803 26.0155 14.9252 26.1635C14.9702 26.3114 15.0719 26.4356 15.2082 26.5087C15.2921 26.5538 15.386 26.5773 15.4813 26.577C15.587 26.5771 15.6907 26.5485 15.7813 26.4942C15.872 26.4399 15.9462 26.362 15.996 26.2688C16.094 26.0849 16.2273 25.9221 16.3882 25.7897C16.5492 25.6573 16.7347 25.558 16.9341 25.4973C17.1335 25.4367 17.3429 25.4159 17.5503 25.4363C17.7577 25.4567 17.9591 25.5177 18.1429 25.6159C18.2106 25.6563 18.2859 25.6824 18.364 25.6928C18.4422 25.7032 18.5217 25.6976 18.5976 25.6764C18.6735 25.6552 18.7444 25.6189 18.8059 25.5695C18.8674 25.5201 18.9182 25.4588 18.9553 25.3892C18.9924 25.3197 19.015 25.2433 19.0217 25.1647C19.0284 25.0862 19.0192 25.007 18.9945 24.9322C18.9697 24.8573 18.9301 24.7882 18.8779 24.7291C18.8257 24.67 18.7621 24.6221 18.6908 24.5883Z" fill="#d2ae6d"/>
<path d="M31.1242 16.9367C31.0516 16.9125 30.9749 16.9027 30.8985 16.9081C30.8222 16.9134 30.7476 16.9338 30.6791 16.968C30.6105 17.0022 30.5494 17.0495 30.4992 17.1073C30.449 17.1651 30.4107 17.2322 30.3864 17.3048C30.3621 17.3774 30.3524 17.4541 30.3577 17.5305C30.3631 17.6069 30.3834 17.6815 30.4176 17.75C30.4518 17.8185 30.4991 17.8796 30.5569 17.9298C30.6147 17.98 30.6818 18.0184 30.7545 18.0427C31.1532 18.1767 31.4824 18.4636 31.6698 18.8402C31.8572 19.2168 31.8874 19.6524 31.7538 20.0513C31.7052 20.198 31.7166 20.3579 31.7856 20.4962C31.8546 20.6345 31.9755 20.7398 32.1219 20.7892C32.1815 20.8088 32.2439 20.819 32.3068 20.8191C32.4291 20.8194 32.5484 20.7811 32.6477 20.7096C32.747 20.6382 32.8212 20.5372 32.8597 20.4211C33.091 19.7289 33.0381 18.9732 32.7127 18.3199C32.3874 17.6666 31.816 17.1692 31.1242 16.9367Z" fill="#d2ae6d"/>
<path d="M51.389 22.3881C51.5969 22.4059 51.7991 22.4645 51.9843 22.5606C52.1695 22.6566 52.3339 22.7882 52.4681 22.9479C52.6024 23.1075 52.7039 23.292 52.7668 23.4909C52.8297 23.6898 52.8528 23.8991 52.8347 24.107C52.8213 24.2609 52.8696 24.4138 52.9689 24.5322C53.0682 24.6506 53.2105 24.7247 53.3644 24.7382H53.416C53.5616 24.7383 53.702 24.6838 53.8093 24.5854C53.9166 24.487 53.9831 24.3519 53.9956 24.2069C54.0589 23.4804 53.8314 22.7585 53.3631 22.1995C52.8947 21.6406 52.2237 21.2903 51.4973 21.2255C51.4207 21.2189 51.3436 21.2273 51.2703 21.2505C51.1971 21.2736 51.1291 21.3109 51.0702 21.3604C51.0114 21.4098 50.9628 21.4703 50.9274 21.5385C50.8919 21.6066 50.8702 21.6811 50.8635 21.7577C50.8569 21.8342 50.8653 21.9114 50.8885 21.9846C50.9116 22.0579 50.9489 22.1259 50.9984 22.1848C51.0478 22.2436 51.1083 22.2922 51.1765 22.3276C51.2446 22.3631 51.3191 22.3848 51.3957 22.3914L51.389 22.3881Z" fill="#d2ae6d"/>
<path d="M14.6202 42.1716C13.8927 42.1117 13.1712 42.3431 12.6143 42.8151C12.0575 43.287 11.7108 43.9608 11.6505 44.6882C11.6381 44.8421 11.6872 44.9947 11.7872 45.1124C11.8871 45.2301 12.0296 45.3034 12.1835 45.3161H12.2335C12.3796 45.3162 12.5204 45.2612 12.6278 45.1621C12.7352 45.063 12.8014 44.9271 12.8131 44.7815C12.8303 44.5738 12.8883 44.3716 12.9838 44.1864C13.0793 44.0011 13.2105 43.8366 13.3697 43.7021C13.5289 43.5677 13.713 43.466 13.9116 43.4028C14.1102 43.3397 14.3193 43.3163 14.527 43.3341C14.6816 43.3469 14.8349 43.2978 14.9533 43.1975C15.0717 43.0973 15.1454 42.9541 15.1582 42.7995C15.171 42.6449 15.1219 42.4915 15.0216 42.3731C14.9214 42.2547 14.7782 42.181 14.6236 42.1682L14.6202 42.1716Z" fill="#d2ae6d"/>
</svg>
