<svg width="61" height="81" viewBox="0 0 61 81" fill="none" xmlns="http://www.w3.org/2000/svg">
<path d="M51.4428 58.5228C56.5365 57.8414 60.4789 53.4705 60.4789 48.1934C60.4789 42.9295 56.5564 38.5672 51.4812 37.8689V36.1966C51.4812 35.3164 50.7678 34.603 49.8876 34.603H5.89936C5.0192 34.603 4.30576 35.3164 4.30576 36.1966V57.1909C4.30576 66.0091 9.17061 73.7113 16.3564 77.7581H2.23373C1.35357 77.7581 0.640137 78.4716 0.640137 79.3517C0.640137 80.2319 1.35357 80.9453 2.23373 80.9453H53.22C54.1001 80.9453 54.8136 80.2319 54.8136 79.3517C54.8136 78.4716 54.1001 77.7581 53.22 77.7581H39.4304C46.2523 73.9164 50.9811 66.7805 51.4428 58.5228ZM51.4812 41.0981C54.7908 41.7626 57.2915 44.6912 57.2915 48.1934C57.2915 51.6958 54.7906 54.6242 51.4812 55.2889V41.0981ZM27.8936 77.5917C16.6447 77.5917 7.4931 68.4402 7.4931 57.1912V44.4555H23.5615C24.4417 44.4555 25.1551 43.742 25.1551 42.8619C25.1551 41.9817 24.4417 41.2683 23.5615 41.2683H7.4931V37.7906H48.294V57.1914C48.294 68.44 39.1425 77.5917 27.8936 77.5917Z" fill="#d2ae6d"/>
<path d="M31.7259 41.2678H29.3931C28.5129 41.2678 27.7995 41.9813 27.7995 42.8614C27.7995 43.7416 28.5129 44.455 29.3931 44.455H31.7259C32.6061 44.455 33.3195 43.7416 33.3195 42.8614C33.3195 41.9813 32.6061 41.2678 31.7259 41.2678Z" fill="#d2ae6d"/>
<path d="M32.0561 8.36906C31.1759 8.36906 30.4625 9.0825 30.4625 9.96266C30.4625 10.8428 31.1759 11.5563 32.0561 11.5563C34.7715 11.5563 36.9809 13.7655 36.9809 16.4811C36.9809 19.1966 34.7717 21.4059 32.0561 21.4059C27.5831 21.4059 23.944 25.045 23.944 29.518C23.944 30.3981 24.6575 31.1116 25.5376 31.1116C26.4178 31.1116 27.1312 30.3981 27.1312 29.518C27.1312 26.8025 29.3404 24.5931 32.0561 24.5931C36.529 24.5931 40.1681 20.9541 40.1681 16.4811C40.1681 12.0081 36.529 8.36906 32.0561 8.36906Z" fill="#d2ae6d"/>
<path d="M26.0808 13.9822C23.3653 13.9822 21.1559 11.773 21.1559 9.05734C21.1559 6.34172 23.3651 4.1325 26.0808 4.1325C26.9609 4.1325 27.6744 3.41906 27.6744 2.53891C27.6744 1.65875 26.9609 0.945312 26.0808 0.945312C21.6078 0.945312 17.9687 4.58437 17.9687 9.05734C17.9689 13.5303 21.6079 17.1694 26.0808 17.1694C26.9609 17.1694 27.6744 16.4559 27.6744 15.5758C27.6744 14.6956 26.9609 13.9822 26.0808 13.9822Z" fill="#d2ae6d"/>
</svg>
