<svg width="61" height="81" viewBox="0 0 81 78" fill="none" xmlns="http://www.w3.org/2000/svg">
<path d="M78.2297 13.0915C67.0942 5.13058 53.7481 0.850586 40.0596 0.850586C26.371 0.850586 13.025 5.13058 1.88942 13.0915C0.975386 13.7386 0.347309 14.7144 0.136825 15.8144C-0.0736588 16.9143 0.149789 18.053 0.760338 18.9919L36.381 74.9723C36.7702 75.5971 37.3122 76.1125 37.9558 76.4698C38.5994 76.8271 39.3234 77.0146 40.0596 77.0146C40.7957 77.0146 41.5197 76.8271 42.1633 76.4698C42.8069 76.1125 43.3489 75.5971 43.7382 74.9723L79.3588 18.9919C79.9693 18.053 80.1928 16.9143 79.9823 15.8144C79.7718 14.7144 79.1438 13.7386 78.2297 13.0915ZM16.1668 37.822C16.8776 36.3413 17.9944 35.093 19.3872 34.2225C20.78 33.352 22.3915 32.8951 24.0339 32.905C26.3523 32.8857 28.5833 33.7881 30.2363 35.4138C31.8892 37.0394 32.8287 39.2551 32.848 41.5735C32.8674 43.8918 31.9649 46.1228 30.3393 47.7758C28.7136 49.4288 26.4979 50.3682 24.1796 50.3876L16.1668 37.822ZM41.2979 73.4062C41.1673 73.617 40.9849 73.791 40.7682 73.9116C40.5515 74.0323 40.3076 74.0956 40.0596 74.0956C39.8115 74.0956 39.5676 74.0323 39.3509 73.9116C39.1342 73.791 38.9519 73.617 38.8212 73.4062L25.9279 53.1556C27.8279 52.8407 29.6203 52.0599 31.1448 50.8829C32.6693 49.706 33.8783 48.1696 34.6639 46.4111C35.4494 44.6526 35.7869 42.7269 35.6462 40.8061C35.5055 38.8853 34.891 37.0292 33.8577 35.404C32.8243 33.7787 31.4043 32.4349 29.7246 31.4926C28.0449 30.5503 26.1578 30.039 24.2322 30.0043C22.3066 29.9696 20.4023 30.4127 18.6898 31.2939C16.9772 32.1751 15.5098 33.4669 14.4186 35.0539L8.77316 26.167C17.7153 19.2027 28.7254 15.4211 40.0596 15.4211C51.3937 15.4211 62.4038 19.2027 71.346 26.167L63.5153 38.4776C62.2409 37.4297 60.7586 36.6644 59.1663 36.2321C57.5741 35.7999 55.9083 35.7106 54.2789 35.9702C52.6496 36.2298 51.094 36.8324 49.715 37.7381C48.3359 38.6437 47.1649 39.8319 46.2793 41.2239C45.3937 42.616 44.8137 44.1801 44.5777 45.813C44.3417 47.4459 44.4551 49.1103 44.9104 50.6961C45.3657 52.2819 46.1524 53.753 47.2186 55.0121C48.2849 56.2711 49.6063 57.2895 51.0954 57.9997L41.2979 73.4062ZM52.698 55.523C51.5225 55.0319 50.4686 54.2898 49.61 53.3487C48.7514 52.4076 48.1089 51.2902 47.7275 50.0747C47.346 48.8592 47.2349 47.575 47.4018 46.312C47.5687 45.0491 48.0097 43.8379 48.6938 42.7632C49.3779 41.6886 50.2886 40.7764 51.3623 40.0907C52.4359 39.4049 53.6464 38.9621 54.9091 38.7933C56.1718 38.6244 57.4561 38.7336 58.6722 39.1132C59.8883 39.4928 61.0067 40.1335 61.9491 40.9907L52.698 55.523ZM76.9185 17.4257L72.9485 23.6903C63.5166 16.4425 51.9546 12.5133 40.0596 12.5133C28.1645 12.5133 16.6026 16.4425 7.17059 23.6903L3.2006 17.4257C3.0111 17.1067 2.94714 16.7286 3.02121 16.365C3.09527 16.0014 3.30205 15.6784 3.60125 15.4589C14.237 7.85407 26.9846 3.76544 40.0596 3.76544C53.1345 3.76544 65.8821 7.85407 76.5179 15.4589C76.8171 15.6784 77.0239 16.0014 77.0979 16.365C77.172 16.7286 77.108 17.1067 76.9185 17.4257Z" fill="#d2ae6d"/>
</svg>
