<svg width="99" height="34" viewBox="0 0 99 34" fill="none" xmlns="http://www.w3.org/2000/svg">
<path d="M14.2954 0.681114C11.4796 1.20119 7.41958 3.28149 5.22588 5.36179C3.37596 7.10136 1.52605 10.3653 0.969439 12.8939C0.740246 13.8803 0.707504 14.5797 0.772988 15.9068C0.903955 18.2023 1.19863 19.368 2.36097 21.9683C3.26137 23.9769 3.47419 24.3176 4.9312 25.9317C7.95982 29.2853 11.807 31.24 17.1766 32.1546C19.4031 32.5313 23.7741 32.6747 26.2625 32.4595C28.1452 32.2802 29.0947 32.065 32.9746 30.8993L34.055 30.5765L34.7099 31.0428C35.7576 31.8139 37.362 32.4237 39.0318 32.6927C41.0618 33.0334 44.3851 33.0334 45.6948 32.6927C46.677 32.4416 46.808 32.4416 48.6415 32.9079C50.295 33.3203 50.9498 33.3921 53.2745 33.3921C56.3522 33.41 57.4982 33.1948 60.7887 32.0291C63.1462 31.1862 64.7832 30.3075 66.6495 28.819C67.3862 28.2451 68.0902 27.7609 68.2211 27.7609C68.3521 27.7609 69.1215 28.0837 69.9237 28.4962C74.262 30.6841 77.1597 31.7063 80.2538 32.1546C84.723 32.8003 88.8485 32.2264 91.5824 30.5944C96.1827 27.8326 98.5892 23.7617 98.6547 18.5789C98.6874 16.5703 98.4091 15.2612 97.5414 13.3781C94.8566 7.5497 90.0436 4.07057 83.266 3.10215C78.4202 2.40274 73.7545 2.94075 68.9906 4.71618C65.4053 6.0612 64.3412 6.58128 61.6891 8.30291L59.3317 9.8452L57.4982 9.21753C53.3072 7.80077 49.1654 7.90837 45.7275 9.54033C43.5338 10.5805 41.1109 12.6787 40.0959 14.4003C39.703 15.0639 39.4411 15.315 39.13 15.3508C38.0496 15.4405 35.3811 17.2697 34.0223 18.812C32.1888 20.9282 31.6485 22.058 31.4357 24.2638C31.3047 25.4475 31.6485 27.2408 32.0905 27.7968C32.3361 28.0658 32.2706 28.1196 31.2229 28.4603C28.2434 29.4287 24.7073 30.0743 21.6786 30.2178C17.1766 30.4151 13.2967 29.2494 9.44957 26.5594C7.97619 25.5371 7.17401 24.7481 5.9462 23.134C4.01443 20.5875 2.98306 17.7539 2.95032 14.9384C2.93395 13.1629 3.245 12.1048 4.3091 10.3294C6.732 6.29434 11.3322 3.47876 16.5382 2.85108C20.549 2.34894 26.5899 4.12437 29.0128 6.50955C31.0592 8.51811 32.0578 11.0826 31.6813 13.3064C31.4521 14.6514 31.0592 15.315 29.7331 16.642C27.2611 19.081 23.9706 20.2108 19.8942 19.9956C15.2449 19.7625 11.9216 17.467 11.9707 14.5438C12.0198 12.1228 13.6733 10.5805 16.9147 9.899C18.2244 9.61207 18.6009 9.61206 19.8451 9.7914C21.8915 10.1142 24.298 11.4951 24.298 12.338C24.298 12.8581 23.4794 13.7906 22.6936 14.1851C22.2025 14.4183 21.4331 14.5618 20.3362 14.6156L18.7155 14.7232L18.7646 15.4584L18.8137 16.1937L20.7782 16.1758C23.2175 16.1758 24.2652 15.853 25.3294 14.8487C26.5899 13.6292 26.7373 12.1228 25.755 10.5446C24.8219 9.03819 23.0047 8.06977 20.2544 7.56763C18.4208 7.24483 17.4877 7.24483 15.8833 7.58556C13.3786 8.10564 11.1685 9.75554 10.2681 11.7641C9.66239 13.1091 9.64602 15.0998 10.219 16.7138C11.0539 19.081 13.4604 21.3048 16.3581 22.3808C17.7496 22.883 18.2899 22.9906 19.8942 23.0623C24.5599 23.2596 28.2925 21.8607 31.1901 18.83C32.9091 17.0366 33.5476 16.0144 33.7767 14.5976C34.1533 12.338 33.8422 9.43273 33.0564 7.94424C32.4016 6.70682 31.2884 5.23626 30.2734 4.30371C28.4726 2.67175 25.0674 1.11152 22.0879 0.591446C20.0907 0.232773 16.4727 0.268639 14.2954 0.681114ZM83.8881 6.15087C87.2441 6.63508 90.7966 8.30291 92.6465 10.2756C94.2836 12.0331 94.9876 13.1988 95.7243 15.4226C96.2809 17.1621 96.3791 17.6643 96.3791 18.8838C96.3791 22.7395 94.1036 26.5773 90.7639 28.3348C87.4897 30.0385 84.6903 30.5406 81.0723 30.0385C78.5021 29.6798 77.3234 29.3032 73.8364 27.6892C72.4121 27.0256 71.0861 26.4159 70.8896 26.3441C70.5949 26.2186 70.6768 26.1289 71.5444 25.6447C72.0847 25.3399 73.4271 24.5329 74.5239 23.8334L76.5048 22.5602L77.618 23.1161C79.8936 24.2459 82.5457 24.7122 84.7066 24.3714C86.4583 24.0845 87.2114 23.7796 88.2755 22.9009C90.4037 21.1255 90.682 18.1305 88.9467 15.4764C88.3083 14.5079 86.4747 13.0015 85.0995 12.32C83.1187 11.3337 81.4816 10.993 78.7313 11.0288C74.9987 11.0468 72.9523 11.6027 69.3016 13.5754L67.5663 14.5259L66.6168 13.8444C66.0766 13.4857 65.1107 12.9119 64.4558 12.5711C63.2116 11.9434 63.097 11.7462 63.8829 11.5668C64.1284 11.513 64.9142 11.1006 65.6182 10.6343C69.3835 8.19531 73.6072 6.52748 77.749 5.82807C78.5021 5.6846 81.9563 5.88187 83.8881 6.15087ZM55.1572 11.0288C55.6974 11.1723 56.2376 11.3516 56.3686 11.4234C56.5159 11.531 55.812 12.1766 54.0439 13.5754C52.636 14.6694 51.4082 15.566 51.2936 15.566C51.1954 15.566 50.606 15.4046 50.0167 15.2253C48.838 14.8308 46.4642 14.5259 44.2378 14.4541C43.4356 14.4183 42.7971 14.3465 42.7971 14.2748C42.7971 14.1851 42.879 14.1313 42.9772 14.1313C43.0754 14.1313 43.5829 13.8085 44.1068 13.4319C47.4792 10.9033 51.5228 10.0245 55.1572 11.0288ZM63.3426 14.4183C65.7491 15.7454 65.7655 15.7633 64.8815 16.391C64.4886 16.66 63.4408 17.467 62.5732 18.2023L60.9688 19.5114L60.1994 19.099C59.7574 18.8658 58.6933 18.3637 57.8092 17.9871C56.9416 17.6105 56.2704 17.2339 56.3522 17.1442C56.6633 16.8035 61.2308 13.414 61.3781 13.414C61.4763 13.414 62.3604 13.8623 63.3426 14.4183ZM83.1514 14.0596C84.4611 14.4362 86.1637 15.4405 87.0641 16.3551C88.1936 17.5029 88.4556 19.099 87.7353 20.2646C86.622 22.0759 83.397 22.7216 80.2865 21.7711L78.895 21.3586L79.5171 21.0537C81.0068 20.3722 82.3165 20.0494 83.5771 20.0494C84.854 20.0494 84.8704 20.0494 85.1159 19.4935C85.4597 18.7941 85.2796 18.561 84.1664 18.1485C83.5116 17.9153 83.0204 17.8795 81.8581 17.9512C80.3847 18.0588 77.6508 18.7044 76.1774 19.2783L75.4243 19.5652L73.3943 18.2381C72.2811 17.5029 71.217 16.8573 71.0533 16.7676C70.8896 16.6959 70.775 16.6062 70.8077 16.5703C70.8405 16.5344 71.5936 16.1758 72.4776 15.7633C76.9141 13.7547 80.1883 13.2347 83.1514 14.0596ZM46.6115 16.929C47.6265 17.0904 48.576 17.2697 48.7234 17.3415C48.9198 17.4132 47.9376 18.2561 45.2364 20.3722C43.1736 21.9863 41.3728 23.3313 41.2583 23.3851C40.7016 23.6182 40.718 17.8974 41.2746 17.198C41.3565 17.0725 43.5665 16.6779 44.2378 16.66C44.5324 16.6421 45.6129 16.7676 46.6115 16.929ZM69.318 18.1664C69.4326 18.3278 70.3002 18.9376 71.2334 19.5473C72.1665 20.157 72.9032 20.713 72.8868 20.7847C72.7886 21.0537 68.2539 24.5329 68.0902 24.4611C67.7136 24.2997 64.0629 21.6097 64.1284 21.5379C64.3249 21.3407 68.9251 17.8974 69.0069 17.8974C69.0724 17.8974 69.2034 18.0229 69.318 18.1664ZM38.4097 19.7446C38.3279 21.6276 38.6389 23.2058 39.2119 23.8334C39.392 24.0307 39.5229 24.2459 39.4738 24.2818C39.3429 24.4253 34.2679 27.2229 34.1369 27.2229C33.8586 27.2229 33.5803 25.5909 33.6785 24.5867C33.875 22.4705 35.5448 19.9239 37.5584 18.6506C38.0496 18.3457 38.4588 18.0767 38.4752 18.0767C38.4916 18.0767 38.4588 18.83 38.4097 19.7446ZM55.8611 19.7625C56.827 20.1929 58.0057 20.6771 58.4804 20.8565C58.9716 21.0179 59.299 21.2331 59.2171 21.3048C59.1517 21.3765 57.2035 22.865 54.8952 24.6046C50.295 28.0658 47.4465 29.8412 46.7589 29.6439C46.2514 29.5005 44.6961 28.4245 43.9431 27.6892C43.632 27.3843 43.19 27.0077 42.9608 26.8463L42.5516 26.5594L44.3524 25.5551C45.351 24.9991 47.8557 23.3134 49.9185 21.7711C51.9976 20.2467 53.782 18.9914 53.8966 18.9914C54.0112 18.9734 54.8952 19.3321 55.8611 19.7625ZM64.3903 24.6046L66.7314 25.9137L65.0288 26.936C60.4286 29.6798 58.4641 30.5227 55.4846 30.989C54.3714 31.1504 51.1463 31.0428 51.1463 30.8276C51.1463 30.7738 51.7847 30.3613 52.5705 29.9129C54.2895 28.9445 56.8761 27.1512 59.741 24.9274C60.9197 24.0128 61.9183 23.2775 61.9675 23.2775C62.0166 23.2775 63.1134 23.8693 64.3903 24.6046ZM41.5693 28.6576C42.0277 29.1597 42.6661 29.7695 42.9936 30.0385C43.3374 30.2895 43.5665 30.5765 43.5011 30.6841C43.452 30.7917 42.6989 30.8276 41.5038 30.7558C40.0795 30.6841 39.2774 30.5586 38.2624 30.1999C37.5093 29.9309 36.9036 29.6619 36.9036 29.5901C36.92 29.4646 40.2596 27.8326 40.587 27.7788C40.6853 27.7788 41.1273 28.1734 41.5693 28.6576Z" fill="#ffffff"/>
</svg>
