<svg width="99" height="34" viewBox="0 0 99 34" fill="none" xmlns="http://www.w3.org/2000/svg">
<mask id="path-1-inside-1_563_1081" fill="white">
<path d="M77.1336 0.359444C74.3178 0.877941 70.7162 2.5407 69.0463 4.09619C68.0968 5.00803 66.9672 6.492 66.3451 7.67203C65.5593 9.156 65.2483 12.0524 65.6248 14.3052C65.854 15.6998 66.4597 16.701 68.2114 18.5426C71.1091 21.582 74.8253 22.9587 79.6056 22.7263C81.3082 22.6369 81.7829 22.5475 83.1908 22.0111C85.0898 21.2602 86.2849 20.4378 87.611 18.9717C88.6914 17.7559 89.2972 16.4865 89.5591 14.8416C90.1321 11.1406 87.4309 8.02961 82.9125 7.20717C81.39 6.9211 78.9507 7.17141 77.1663 7.76142C73.3028 9.08448 71.813 12.3743 74.0886 14.5734C75.1363 15.5746 76.2004 15.8786 78.6233 15.8964H80.5878L80.637 15.1634L80.6861 14.4304L79.0653 14.3231C77.9685 14.2694 77.1991 14.1264 76.7079 13.894C75.9221 13.5006 75.1036 12.5709 75.1036 12.0524C75.1036 11.1942 77.4774 9.83541 79.5401 9.53146C80.7679 9.33479 81.1444 9.35267 82.4869 9.62086C85.761 10.3181 87.4145 11.8736 87.4309 14.2873C87.4636 17.1837 84.124 19.4544 79.5074 19.6868C76.446 19.8477 74.0558 19.3114 71.6166 17.8989C70.5525 17.291 68.7517 15.5567 68.2442 14.6628C67.7039 13.7331 67.5238 12.3564 67.753 10.926C68.0805 8.69114 70.0613 6.04502 72.3205 4.81136C75.3164 3.18435 80.064 2.18312 83.0107 2.59434C84.7624 2.82677 87.9384 3.86376 89.379 4.65045C92.4895 6.36685 95.2889 9.51358 96.173 12.2849C97.0079 14.8952 96.0584 19.1505 94.012 22.0648C92.2112 24.6036 90.2794 26.2664 87.3163 27.7861C85.3354 28.8231 83.9439 29.288 81.6519 29.6813C78.3287 30.2713 72.828 29.6455 68.1787 28.1258C67.131 27.7861 67.0655 27.7325 67.311 27.4643C67.5893 27.1246 68.0641 25.283 68.0641 24.5678C68.0477 23.4057 67.5566 21.5999 66.9672 20.6523C66.1487 19.2756 64.7244 17.6844 63.5948 16.844C62.498 16.0216 60.7299 15.0919 60.2061 15.0382C59.9605 15.0204 59.6658 14.6985 59.322 14.1085C58.3398 12.4458 55.9005 10.3539 53.7068 9.29903C50.2362 7.61839 45.8651 7.51112 41.6578 8.99509L40.0698 9.56722L38.3018 8.42295C35.4532 6.56352 35.1258 6.38473 33.4232 5.65168C26.9076 2.82677 21.8654 2.02221 16.0864 2.86253C9.29251 3.84588 4.56132 7.24293 1.84375 13.1073C0.95972 15.0204 0.730527 16.111 0.746898 18.1492C0.763269 23.2269 3.16979 27.4643 7.52446 30.0746C9.70179 31.3798 12.4194 32.0771 15.4152 32.0771C20.0646 32.0771 23.175 31.2189 29.2487 28.251C30.1818 27.804 31.0495 27.4285 31.1968 27.4285C31.3278 27.4285 31.9171 27.8219 32.5228 28.3046C34.9294 30.2534 37.3195 31.4335 40.9047 32.4347C42.591 32.8995 43.3604 33.0247 45.3904 33.0962C47.6823 33.1856 48.0097 33.1499 50.3017 32.6314C52.6427 32.1129 52.79 32.095 53.6577 32.3453C54.82 32.685 58.1269 32.685 60.3206 32.3453C62.056 32.0771 63.5948 31.505 64.7081 30.7004L65.3465 30.2355L66.3451 30.5395C71.4856 32.095 73.2864 32.3632 77.8048 32.2023C85.3845 31.9341 91.1471 29.5919 94.8142 25.2473C95.8292 24.0494 96.2548 23.3521 97.0406 21.6178C97.5808 20.4378 98.1375 18.9895 98.2684 18.3995C98.6777 16.7189 98.7759 13.9655 98.4485 12.6246C97.8755 10.1751 96.3039 7.31444 94.4867 5.40137C93.0297 3.89952 89.9356 1.98645 87.2999 1.0031C84.9589 0.127018 80.0803 -0.194809 77.1336 0.359444ZM23.8954 6.04502C27.5133 6.95686 30.5747 8.27992 33.767 10.336C34.4382 10.783 35.3059 11.23 35.6824 11.3373L36.3373 11.5339L34.6347 12.4815C33.7015 12.9821 32.6865 13.6079 32.3919 13.8225L31.8516 14.2516L30.28 13.3934C26.4656 11.3373 24.4029 10.7651 20.6703 10.7472C18.6403 10.7294 17.9691 10.783 16.7904 11.1048C12.2556 12.3564 9.29251 15.4137 9.29251 18.8286C9.29251 20.1338 10.0619 21.6893 11.1261 22.5833C12.1902 23.4593 12.9432 23.7633 14.6949 24.0494C16.8559 24.3891 19.508 23.9242 21.7835 22.7978L22.8967 22.2436L24.5666 23.3342C25.4833 23.9242 26.8094 24.7109 27.497 25.0685C28.1845 25.426 28.7575 25.7658 28.7575 25.8194C28.7739 25.9624 24.01 28.09 22.1601 28.7873C19.0005 29.9674 14.8914 30.2177 11.9937 29.3773C7.40986 28.0722 4.69229 25.5333 3.39899 21.3317C2.36762 18.0062 3.56269 13.5543 6.32938 10.4612C7.72091 8.90569 9.17792 7.92234 11.2898 7.08202C13.3198 6.25957 14.2693 6.00926 16.1683 5.81259C17.1178 5.70532 18.1492 5.58016 18.4602 5.5444C19.688 5.38349 22.2255 5.6338 23.8954 6.04502ZM48.7464 10.4433C51.2184 10.7651 52.9701 11.4803 55.1474 13.0537C55.7532 13.4828 56.3261 13.8403 56.4244 13.8403C56.5226 13.8403 56.6045 13.894 56.6045 13.9834C56.6045 14.0549 55.8514 14.1443 54.9182 14.1622C52.9046 14.2337 50.3671 14.5913 48.9756 15.0204L47.9934 15.3243L45.3576 13.2861C43.9006 12.1597 42.7383 11.23 42.771 11.1942C42.9839 10.9439 45.3085 10.4612 47.1093 10.2824C47.2567 10.2824 47.9934 10.3539 48.7464 10.4433ZM40.7738 15.0919C42.0998 16.0931 43.1803 16.9334 43.1476 16.9692C43.1148 16.9871 42.3945 17.3089 41.5432 17.6844C40.6919 18.0598 39.6278 18.5426 39.1858 18.775L38.3836 19.2041L37.1394 18.1671C36.4519 17.595 35.4205 16.7725 34.8475 16.3613C33.9307 15.6819 33.8489 15.5567 34.0617 15.3243C34.5037 14.8416 37.696 13.1252 38.0235 13.1788C38.2035 13.2146 39.4477 14.0728 40.7738 15.0919ZM20.9159 13.5722C22.9459 13.8761 23.748 14.1085 26.5311 15.3064C28.3974 16.111 29.0195 16.5222 28.381 16.5222C28.2664 16.5222 27.2187 17.148 26.0563 17.8989L23.9445 19.2935L22.6348 18.8108C18.9186 17.4519 15.5462 17.2374 14.3675 18.2744C14.0073 18.5962 14.0073 18.6141 14.2693 19.1683C14.5312 19.7405 14.5476 19.7405 15.8573 19.7405C16.905 19.7405 17.4943 19.8477 18.7222 20.3126C19.5734 20.6166 20.261 20.9384 20.261 20.992C20.261 21.2244 18.1983 21.7608 16.9705 21.8502C12.9432 22.1184 10.5203 20.1159 11.5026 17.3089C12.1738 15.3958 15.6281 13.4828 18.7058 13.3397C18.9841 13.3218 19.9663 13.4291 20.9159 13.5722ZM56.5553 16.5401C57.2593 16.6653 57.9141 16.8262 58.0287 16.9156C58.1269 17.005 58.3398 17.6486 58.4871 18.3459C58.749 19.4723 58.749 19.7941 58.569 21.3854C58.4053 22.7263 58.2907 23.1375 58.1269 23.066C58.0123 23.0124 56.2115 21.6535 54.1488 20.0623C49.8924 16.7904 50.0233 17.0765 52.5936 16.6295C54.4926 16.3077 55.0165 16.3077 56.5553 16.5401ZM32.8994 19.4008C34.0944 20.3126 35.1422 21.1172 35.2077 21.1708C35.3223 21.2781 31.868 23.9063 31.3114 24.1387C31.1477 24.2103 26.6129 20.7417 26.5147 20.4735C26.4983 20.3841 27.235 19.8299 28.1845 19.222C29.1341 18.6141 29.9853 17.9883 30.0999 17.8453C30.2145 17.7022 30.3946 17.6128 30.5092 17.6665C30.6238 17.7201 31.7043 18.4889 32.8994 19.4008ZM63.5621 19.8477C65.3138 21.7072 66.116 24.1387 65.6085 26.0876C65.4939 26.5346 65.3301 26.8921 65.2483 26.8921C65.0355 26.8921 60.3698 24.2997 59.9605 23.96C59.6658 23.7096 59.6494 23.6918 59.9277 23.6739C60.1242 23.6739 60.3534 23.3699 60.5826 22.8157C60.8936 22.1005 60.9427 21.6535 60.9427 19.9014V17.8274L61.7449 18.2923C62.1706 18.5426 62.9891 19.2399 63.5621 19.8477ZM49.7614 21.6714C52.037 23.3163 54.5417 24.9791 55.3275 25.3724C56.1133 25.7658 56.7354 26.1412 56.719 26.1949C56.6045 26.5882 53.2648 29.1449 52.6427 29.3058C51.9551 29.5025 49.0411 27.6967 44.4409 24.2281C42.1162 22.4581 40.1844 20.992 40.1353 20.9384C40.0862 20.8847 40.5118 20.6881 41.0848 20.4735C41.6578 20.259 42.8201 19.7762 43.6714 19.3829C44.5227 18.9895 45.3249 18.6677 45.4231 18.6677C45.5377 18.6677 47.4859 20.0087 49.7614 21.6714ZM38.8584 23.9778C41.5596 26.1055 45.1284 28.6264 46.6509 29.4846C47.535 29.9674 48.2553 30.4322 48.2553 30.4859C48.2553 30.7004 45.0302 30.8077 43.917 30.6468C40.9375 30.1819 38.9075 29.3058 34.1927 26.4988L32.6702 25.587L34.9294 24.2997C36.1899 23.5845 37.2868 22.9766 37.385 22.9766C37.4832 22.9587 38.1544 23.4236 38.8584 23.9778ZM60.7299 28.3225C61.6958 28.7695 62.498 29.1807 62.498 29.2522C62.498 29.3237 61.8923 29.5919 61.1556 29.8601C60.1078 30.2177 59.3384 30.3428 57.7995 30.4322C56.5062 30.4859 55.7859 30.4501 55.7859 30.3428C55.7859 30.2355 56.0642 29.9495 56.408 29.6992C56.7354 29.431 57.3739 28.8231 57.8323 28.3225C58.2743 27.8219 58.7163 27.4464 58.8145 27.4643C58.8964 27.5 59.764 27.8755 60.7299 28.3225Z"/>
</mask>
<path d="M77.1336 0.359444C74.3178 0.877941 70.7162 2.5407 69.0463 4.09619C68.0968 5.00803 66.9672 6.492 66.3451 7.67203C65.5593 9.156 65.2483 12.0524 65.6248 14.3052C65.854 15.6998 66.4597 16.701 68.2114 18.5426C71.1091 21.582 74.8253 22.9587 79.6056 22.7263C81.3082 22.6369 81.7829 22.5475 83.1908 22.0111C85.0898 21.2602 86.2849 20.4378 87.611 18.9717C88.6914 17.7559 89.2972 16.4865 89.5591 14.8416C90.1321 11.1406 87.4309 8.02961 82.9125 7.20717C81.39 6.9211 78.9507 7.17141 77.1663 7.76142C73.3028 9.08448 71.813 12.3743 74.0886 14.5734C75.1363 15.5746 76.2004 15.8786 78.6233 15.8964H80.5878L80.637 15.1634L80.6861 14.4304L79.0653 14.3231C77.9685 14.2694 77.1991 14.1264 76.7079 13.894C75.9221 13.5006 75.1036 12.5709 75.1036 12.0524C75.1036 11.1942 77.4774 9.83541 79.5401 9.53146C80.7679 9.33479 81.1444 9.35267 82.4869 9.62086C85.761 10.3181 87.4145 11.8736 87.4309 14.2873C87.4636 17.1837 84.124 19.4544 79.5074 19.6868C76.446 19.8477 74.0558 19.3114 71.6166 17.8989C70.5525 17.291 68.7517 15.5567 68.2442 14.6628C67.7039 13.7331 67.5238 12.3564 67.753 10.926C68.0805 8.69114 70.0613 6.04502 72.3205 4.81136C75.3164 3.18435 80.064 2.18312 83.0107 2.59434C84.7624 2.82677 87.9384 3.86376 89.379 4.65045C92.4895 6.36685 95.2889 9.51358 96.173 12.2849C97.0079 14.8952 96.0584 19.1505 94.012 22.0648C92.2112 24.6036 90.2794 26.2664 87.3163 27.7861C85.3354 28.8231 83.9439 29.288 81.6519 29.6813C78.3287 30.2713 72.828 29.6455 68.1787 28.1258C67.131 27.7861 67.0655 27.7325 67.311 27.4643C67.5893 27.1246 68.0641 25.283 68.0641 24.5678C68.0477 23.4057 67.5566 21.5999 66.9672 20.6523C66.1487 19.2756 64.7244 17.6844 63.5948 16.844C62.498 16.0216 60.7299 15.0919 60.2061 15.0382C59.9605 15.0204 59.6658 14.6985 59.322 14.1085C58.3398 12.4458 55.9005 10.3539 53.7068 9.29903C50.2362 7.61839 45.8651 7.51112 41.6578 8.99509L40.0698 9.56722L38.3018 8.42295C35.4532 6.56352 35.1258 6.38473 33.4232 5.65168C26.9076 2.82677 21.8654 2.02221 16.0864 2.86253C9.29251 3.84588 4.56132 7.24293 1.84375 13.1073C0.95972 15.0204 0.730527 16.111 0.746898 18.1492C0.763269 23.2269 3.16979 27.4643 7.52446 30.0746C9.70179 31.3798 12.4194 32.0771 15.4152 32.0771C20.0646 32.0771 23.175 31.2189 29.2487 28.251C30.1818 27.804 31.0495 27.4285 31.1968 27.4285C31.3278 27.4285 31.9171 27.8219 32.5228 28.3046C34.9294 30.2534 37.3195 31.4335 40.9047 32.4347C42.591 32.8995 43.3604 33.0247 45.3904 33.0962C47.6823 33.1856 48.0097 33.1499 50.3017 32.6314C52.6427 32.1129 52.79 32.095 53.6577 32.3453C54.82 32.685 58.1269 32.685 60.3206 32.3453C62.056 32.0771 63.5948 31.505 64.7081 30.7004L65.3465 30.2355L66.3451 30.5395C71.4856 32.095 73.2864 32.3632 77.8048 32.2023C85.3845 31.9341 91.1471 29.5919 94.8142 25.2473C95.8292 24.0494 96.2548 23.3521 97.0406 21.6178C97.5808 20.4378 98.1375 18.9895 98.2684 18.3995C98.6777 16.7189 98.7759 13.9655 98.4485 12.6246C97.8755 10.1751 96.3039 7.31444 94.4867 5.40137C93.0297 3.89952 89.9356 1.98645 87.2999 1.0031C84.9589 0.127018 80.0803 -0.194809 77.1336 0.359444ZM23.8954 6.04502C27.5133 6.95686 30.5747 8.27992 33.767 10.336C34.4382 10.783 35.3059 11.23 35.6824 11.3373L36.3373 11.5339L34.6347 12.4815C33.7015 12.9821 32.6865 13.6079 32.3919 13.8225L31.8516 14.2516L30.28 13.3934C26.4656 11.3373 24.4029 10.7651 20.6703 10.7472C18.6403 10.7294 17.9691 10.783 16.7904 11.1048C12.2556 12.3564 9.29251 15.4137 9.29251 18.8286C9.29251 20.1338 10.0619 21.6893 11.1261 22.5833C12.1902 23.4593 12.9432 23.7633 14.6949 24.0494C16.8559 24.3891 19.508 23.9242 21.7835 22.7978L22.8967 22.2436L24.5666 23.3342C25.4833 23.9242 26.8094 24.7109 27.497 25.0685C28.1845 25.426 28.7575 25.7658 28.7575 25.8194C28.7739 25.9624 24.01 28.09 22.1601 28.7873C19.0005 29.9674 14.8914 30.2177 11.9937 29.3773C7.40986 28.0722 4.69229 25.5333 3.39899 21.3317C2.36762 18.0062 3.56269 13.5543 6.32938 10.4612C7.72091 8.90569 9.17792 7.92234 11.2898 7.08202C13.3198 6.25957 14.2693 6.00926 16.1683 5.81259C17.1178 5.70532 18.1492 5.58016 18.4602 5.5444C19.688 5.38349 22.2255 5.6338 23.8954 6.04502ZM48.7464 10.4433C51.2184 10.7651 52.9701 11.4803 55.1474 13.0537C55.7532 13.4828 56.3261 13.8403 56.4244 13.8403C56.5226 13.8403 56.6045 13.894 56.6045 13.9834C56.6045 14.0549 55.8514 14.1443 54.9182 14.1622C52.9046 14.2337 50.3671 14.5913 48.9756 15.0204L47.9934 15.3243L45.3576 13.2861C43.9006 12.1597 42.7383 11.23 42.771 11.1942C42.9839 10.9439 45.3085 10.4612 47.1093 10.2824C47.2567 10.2824 47.9934 10.3539 48.7464 10.4433ZM40.7738 15.0919C42.0998 16.0931 43.1803 16.9334 43.1476 16.9692C43.1148 16.9871 42.3945 17.3089 41.5432 17.6844C40.6919 18.0598 39.6278 18.5426 39.1858 18.775L38.3836 19.2041L37.1394 18.1671C36.4519 17.595 35.4205 16.7725 34.8475 16.3613C33.9307 15.6819 33.8489 15.5567 34.0617 15.3243C34.5037 14.8416 37.696 13.1252 38.0235 13.1788C38.2035 13.2146 39.4477 14.0728 40.7738 15.0919ZM20.9159 13.5722C22.9459 13.8761 23.748 14.1085 26.5311 15.3064C28.3974 16.111 29.0195 16.5222 28.381 16.5222C28.2664 16.5222 27.2187 17.148 26.0563 17.8989L23.9445 19.2935L22.6348 18.8108C18.9186 17.4519 15.5462 17.2374 14.3675 18.2744C14.0073 18.5962 14.0073 18.6141 14.2693 19.1683C14.5312 19.7405 14.5476 19.7405 15.8573 19.7405C16.905 19.7405 17.4943 19.8477 18.7222 20.3126C19.5734 20.6166 20.261 20.9384 20.261 20.992C20.261 21.2244 18.1983 21.7608 16.9705 21.8502C12.9432 22.1184 10.5203 20.1159 11.5026 17.3089C12.1738 15.3958 15.6281 13.4828 18.7058 13.3397C18.9841 13.3218 19.9663 13.4291 20.9159 13.5722ZM56.5553 16.5401C57.2593 16.6653 57.9141 16.8262 58.0287 16.9156C58.1269 17.005 58.3398 17.6486 58.4871 18.3459C58.749 19.4723 58.749 19.7941 58.569 21.3854C58.4053 22.7263 58.2907 23.1375 58.1269 23.066C58.0123 23.0124 56.2115 21.6535 54.1488 20.0623C49.8924 16.7904 50.0233 17.0765 52.5936 16.6295C54.4926 16.3077 55.0165 16.3077 56.5553 16.5401ZM32.8994 19.4008C34.0944 20.3126 35.1422 21.1172 35.2077 21.1708C35.3223 21.2781 31.868 23.9063 31.3114 24.1387C31.1477 24.2103 26.6129 20.7417 26.5147 20.4735C26.4983 20.3841 27.235 19.8299 28.1845 19.222C29.1341 18.6141 29.9853 17.9883 30.0999 17.8453C30.2145 17.7022 30.3946 17.6128 30.5092 17.6665C30.6238 17.7201 31.7043 18.4889 32.8994 19.4008ZM63.5621 19.8477C65.3138 21.7072 66.116 24.1387 65.6085 26.0876C65.4939 26.5346 65.3301 26.8921 65.2483 26.8921C65.0355 26.8921 60.3698 24.2997 59.9605 23.96C59.6658 23.7096 59.6494 23.6918 59.9277 23.6739C60.1242 23.6739 60.3534 23.3699 60.5826 22.8157C60.8936 22.1005 60.9427 21.6535 60.9427 19.9014V17.8274L61.7449 18.2923C62.1706 18.5426 62.9891 19.2399 63.5621 19.8477ZM49.7614 21.6714C52.037 23.3163 54.5417 24.9791 55.3275 25.3724C56.1133 25.7658 56.7354 26.1412 56.719 26.1949C56.6045 26.5882 53.2648 29.1449 52.6427 29.3058C51.9551 29.5025 49.0411 27.6967 44.4409 24.2281C42.1162 22.4581 40.1844 20.992 40.1353 20.9384C40.0862 20.8847 40.5118 20.6881 41.0848 20.4735C41.6578 20.259 42.8201 19.7762 43.6714 19.3829C44.5227 18.9895 45.3249 18.6677 45.4231 18.6677C45.5377 18.6677 47.4859 20.0087 49.7614 21.6714ZM38.8584 23.9778C41.5596 26.1055 45.1284 28.6264 46.6509 29.4846C47.535 29.9674 48.2553 30.4322 48.2553 30.4859C48.2553 30.7004 45.0302 30.8077 43.917 30.6468C40.9375 30.1819 38.9075 29.3058 34.1927 26.4988L32.6702 25.587L34.9294 24.2997C36.1899 23.5845 37.2868 22.9766 37.385 22.9766C37.4832 22.9587 38.1544 23.4236 38.8584 23.9778ZM60.7299 28.3225C61.6958 28.7695 62.498 29.1807 62.498 29.2522C62.498 29.3237 61.8923 29.5919 61.1556 29.8601C60.1078 30.2177 59.3384 30.3428 57.7995 30.4322C56.5062 30.4859 55.7859 30.4501 55.7859 30.3428C55.7859 30.2355 56.0642 29.9495 56.408 29.6992C56.7354 29.431 57.3739 28.8231 57.8323 28.3225C58.2743 27.8219 58.7163 27.4464 58.8145 27.4643C58.8964 27.5 59.764 27.8755 60.7299 28.3225Z" fill="#ffffff" stroke="#ffffff" stroke-width="2" mask="url(#path-1-inside-1_563_1081)"/>
</svg>
